<svg width="24" height="24" viewBox="0 0 24 24" fill="none" xmlns="http://www.w3.org/2000/svg">
<g opacity="0.5">
<path d="M14.9722 3.43193C13.0168 2.97762 10.9831 2.97763 9.0277 3.43195C7.8983 2.7387 7.03529 2.42058 6.40806 2.28654C6.06705 2.21366 5.79676 2.19546 5.59346 2.20089C5.492 2.2036 5.40804 2.21218 5.34116 2.22247C5.30775 2.22761 5.27872 2.23316 5.25402 2.23858C5.24167 2.24128 5.23042 2.24396 5.22025 2.24652L5.20582 2.25028L5.19922 2.25209L5.19607 2.25297L5.19303 2.25383C5.19302 2.25383 5.19304 2.25383 5.19303 2.25383C5.19235 2.25415 5.19571 2.26322 5.41281 3.02232L5.19303 2.25383C4.96578 2.31882 4.77891 2.48097 4.68253 2.69678C4.41348 3.29924 4.26653 3.94906 4.25018 4.60866C4.23803 5.09883 4.29817 5.58718 4.42791 6.05813C4.08696 6.47112 3.80914 6.93358 3.60445 7.43051C3.33576 8.08277 3.19833 8.7816 3.2 9.48702C3.2002 11.9711 3.93307 13.6413 5.18199 14.7145C6.05704 15.4664 7.1208 15.8665 8.18592 16.0956C8.01004 16.5843 7.96439 17.1013 8 17.6281V18.5853C7.34824 18.7223 6.89819 18.679 6.57734 18.5731C6.17417 18.4401 5.86507 18.1724 5.57024 17.7881C5.42093 17.5934 5.28335 17.3796 5.13889 17.1458L5.04719 16.9965C4.93405 16.8117 4.81196 16.6124 4.68875 16.4307C4.38346 15.9805 3.93304 15.4178 3.20315 15.2262L2.42937 15.0231L2.02307 16.5706L2.79685 16.7738C2.92396 16.8071 3.09129 16.9258 3.3645 17.3287C3.46488 17.4767 3.56064 17.633 3.66997 17.8114C3.70431 17.8674 3.74008 17.9258 3.77766 17.9866C3.92783 18.2297 4.10007 18.5003 4.30075 18.7619C4.70592 19.2901 5.25758 19.8224 6.0759 20.0925C6.63815 20.2781 7.27367 20.3226 8 20.211V23.2C8 23.6418 8.35817 24 8.8 24H15.2C15.6418 24 16 23.6418 16 23.2V17.5C16 16.9947 15.978 16.5328 15.8358 16.1018C16.8955 15.8781 17.9509 15.4776 18.8202 14.7251C20.0687 13.6444 20.8 11.9591 20.8 9.46L20.8 9.45742C20.796 8.21139 20.3588 7.01115 19.5721 6.05815C19.7018 5.5872 19.762 5.09884 19.7498 4.60866C19.7335 3.94906 19.5865 3.29924 19.3175 2.69678C19.2211 2.4809 19.0341 2.31873 18.8068 2.25378L18.587 3.023C18.8068 2.25378 18.8045 2.25313 18.8037 2.25291L18.8006 2.25204L18.794 2.25024L18.7796 2.24648C18.7694 2.24392 18.7582 2.24125 18.7458 2.23855C18.7211 2.23314 18.6921 2.22759 18.6587 2.22246C18.5918 2.21217 18.5079 2.2036 18.4064 2.20089C18.203 2.19546 17.9327 2.21366 17.5916 2.28653C16.9642 2.42057 16.1012 2.73868 14.9722 3.43193Z" fill="#475569"/>
</g>
</svg>
