<svg width="24" height="24" viewBox="0 0 24 24" fill="none" xmlns="http://www.w3.org/2000/svg">
<g opacity="0.5">
<path d="M0 12C0 5.37258 5.37258 0 12 0C18.6274 0 24 5.37258 24 12C24 18.6274 18.6274 24 12 24C10.3454 24 8.76895 23.6651 7.33483 23.0594L10.3921 16.0714C11.1607 17.0188 12.3294 17.6 13.6 17.6C16.6928 17.6 19.2 15.0928 19.2 12V11.2C19.2 7.66538 16.3346 4.8 12.8 4.8H11.2C7.66538 4.8 4.8 7.66538 4.8 11.2V12C4.8 13.4337 5.33986 14.7433 6.22612 15.7335L7.41834 14.6665C6.78448 13.9583 6.4 13.025 6.4 12V11.2C6.4 8.54903 8.54903 6.4 11.2 6.4H12.8C15.451 6.4 17.6 8.54903 17.6 11.2V12C17.6 14.2091 15.8091 16 13.6 16C12.5111 16 11.5443 15.3032 11.2 14.2702L11.1914 14.2444L12.733 10.7207L11.2672 10.0793L5.90385 22.3384C2.37013 20.2502 0 16.4019 0 12Z" fill="#475569"/>
</g>
</svg>
