<svg width="24" height="24" viewBox="0 0 24 24" fill="none" xmlns="http://www.w3.org/2000/svg">
<g opacity="0.5">
<path fill-rule="evenodd" clip-rule="evenodd" d="M12.194 1.6239C11.955 1.56415 11.7018 1.61784 11.5077 1.76945C11.3135 1.92105 11.2 2.15367 11.2 2.40001V8.02428C9.10148 8.15155 7.12956 8.77117 5.52751 9.69421C4.90696 9.14858 4.07025 8.87012 3.23485 8.87012C1.44801 8.87012 0 10.3181 0 12.105C0 13.3015 0.649706 14.3364 1.61084 14.8927C1.60365 14.9947 1.6 15.0971 1.6 15.2C1.6 17.1883 2.96384 19.001 4.83404 20.2717C6.72979 21.5598 9.28684 22.4 12 22.4C14.7131 22.4 17.2702 21.5598 19.1659 20.2717C21.0361 19.001 22.4 17.1884 22.4 15.2C22.4 15.0971 22.3963 14.9947 22.3892 14.8928C23.3504 14.3365 24.0002 13.3016 24.0002 12.105C24.0002 10.3181 22.5521 8.87012 20.7653 8.87012C19.9299 8.87012 19.0931 9.1486 18.4726 9.69427C16.8705 8.77121 14.8985 8.15156 12.8 8.02429V3.42463L17.6881 4.64667C17.9704 5.65804 18.8986 6.40001 20 6.40001C21.3255 6.40001 22.4 5.32549 22.4 4.00001C22.4 2.67452 21.3255 1.60001 20 1.60001C19.021 1.60001 18.1789 2.18621 17.8055 3.02677L12.194 1.6239ZM20 4.80001C19.5622 4.80001 19.2065 4.44832 19.2001 4.01205L19.2 4.00001L19.2001 3.98736C19.2069 3.55136 19.5624 3.20001 20 3.20001C20.4418 3.20001 20.8 3.55818 20.8 4.00001C20.8 4.44183 20.4418 4.80001 20 4.80001ZM8 14.4H9.6V12.8H8V14.4ZM12.0001 17.6C10.4213 17.6 9.41339 17.3274 8.31067 16.8628L7.68945 18.3373C8.96314 18.8739 10.1817 19.2 12.0001 19.2C13.8184 19.2 15.037 18.8739 16.3107 18.3373L15.6895 16.8628C14.5867 17.3274 13.5788 17.6 12.0001 17.6ZM16 14.4H14.4V12.8H16V14.4Z" fill="#475569"/>
</g>
</svg>
