<svg width="16" height="16" viewBox="0 0 16 16" fill="none" xmlns="http://www.w3.org/2000/svg">
<path d="M15.8202 15.1131L11.5535 10.8464L10.8464 11.5535L15.1131 15.8202L15.8202 15.1131ZM6.93332 12.8333C3.67485 12.8333 1.03333 10.1918 1.03333 6.93332H0.0333252C0.0333252 10.7441 3.12256 13.8333 6.93332 13.8333V12.8333ZM12.8333 6.93332C12.8333 10.1918 10.1918 12.8333 6.93332 12.8333V13.8333C10.7441 13.8333 13.8333 10.7441 13.8333 6.93332H12.8333ZM6.93332 1.03333C10.1918 1.03333 12.8333 3.67485 12.8333 6.93332H13.8333C13.8333 3.12256 10.7441 0.0333252 6.93332 0.0333252V1.03333ZM6.93332 0.0333252C3.12256 0.0333252 0.0333252 3.12256 0.0333252 6.93332H1.03333C1.03333 3.67485 3.67485 1.03333 6.93332 1.03333V0.0333252Z" fill="#475569"/>
</svg>
