<svg width="24" height="24" viewBox="0 0 24 24" fill="none" xmlns="http://www.w3.org/2000/svg">
<g opacity="0.5">
<path fill-rule="evenodd" clip-rule="evenodd" d="M0.8 0C0.358172 0 0 0.358172 0 0.8V18.4C0 18.8418 0.358172 19.2 0.8 19.2H4V23.2C4 23.5124 4.18187 23.7962 4.46571 23.9268C4.74956 24.0573 5.08342 24.0107 5.32063 23.8074L10.6959 19.2H18.4C18.6122 19.2 18.8157 19.1157 18.9657 18.9657L23.7657 14.1657C23.9157 14.0156 24 13.8122 24 13.6V0.8C24 0.358172 23.6418 0 23.2 0H0.8ZM16 12.8V4.8H17.6V12.8H16ZM11.2 4.8V12.8H12.8V4.8H11.2Z" fill="#475569"/>
</g>
</svg>
