<svg width="24" height="24" viewBox="0 0 24 24" fill="none" xmlns="http://www.w3.org/2000/svg">
<g opacity="0.5">
<path d="M23.9637 2.34707C23.9425 2.02615 23.7311 1.74918 23.4271 1.64399C23.1232 1.5388 22.7858 1.62584 22.5707 1.86495C22.0178 2.4796 21.3189 2.8961 20.6096 3.086C19.6231 2.16501 18.2976 1.59999 16.841 1.59999C13.7149 1.59999 11.1828 4.1378 11.1828 7.26575V7.96944C6.39678 7.59958 3.8374 3.96394 3.1468 2.11947C3.03517 1.82134 2.75739 1.61776 2.43948 1.60109C2.12157 1.58442 1.82403 1.75783 1.68183 2.04266C0.00706901 5.39736 -0.250972 8.6511 0.966238 11.4218C2.03251 13.8489 4.17689 15.7822 7.21613 17.0631C5.83486 18.042 3.51006 19.2 0.800062 19.2C0.447634 19.2 0.13672 19.4306 0.0344712 19.7679C-0.0677772 20.1052 0.0627288 20.4696 0.355827 20.6653C2.95439 22.4004 5.67783 22.4002 8.21095 22.4L8.28847 22.4C16.0655 22.4 22.368 16.086 22.368 8.29998V7.53471C22.9495 6.94371 23.4022 6.33872 23.6796 5.5566C23.9892 4.68389 24.0516 3.67196 23.9637 2.34707Z" fill="#475569"/>
</g>
</svg>
