<svg width="24" height="24" viewBox="0 0 24 24" fill="none" xmlns="http://www.w3.org/2000/svg">
<g opacity="0.5">
<path d="M13.7578 12L11.2 13.7052V10.2948L13.7578 12Z" fill="#475569"/>
<path fill-rule="evenodd" clip-rule="evenodd" d="M2.40977 2.8369C8.7315 1.48224 15.2685 1.48224 21.5902 2.8369C22.9958 3.1381 24 4.38026 24 5.81775V18.1823C24 19.6198 22.9958 20.8619 21.5902 21.1631C15.2685 22.5178 8.7315 22.5178 2.40977 21.1631C1.00418 20.8619 0 19.6198 0 18.1823V5.81775C0 4.38026 1.00418 3.1381 2.40977 2.8369ZM10.8438 8.13437C10.5983 7.97071 10.2826 7.95545 10.0225 8.09467C9.76239 8.23389 9.6 8.50497 9.6 8.80001V15.2C9.6 15.495 9.76239 15.7661 10.0225 15.9053C10.2826 16.0446 10.5983 16.0293 10.8438 15.8657L15.6438 12.6657C15.8663 12.5173 16 12.2675 16 12C16 11.7325 15.8663 11.4827 15.6438 11.3344L10.8438 8.13437Z" fill="#475569"/>
</g>
</svg>
